# xmcd CD database file
#
# Track frame offsets:
#	150
#	13852
#	33205
#	49015
#	58467
#	75562
#	97975
#	117440
#	129542
#	154177
#	178597
#	195037
#
# Disc length: 2963 seconds
#
# Revision: 1
# Processed by: cddbd v1.5.1PL0 Copyright (c) Steve Scherf et al.
# Submitted via: CDex 1.51
#
DISCID=940b910c
DTITLE=Lionel Hampton - Slide, Hamp Slide
DYEAR=1995
DGENRE=Jazz
TTITLE0=Slide Hamp slide
TTITLE1=Swanee River
TTITLE2=Nola
TTITLE3=The Man I Love
TTITLE4=Lamplighter
TTITLE5=Lady Be Good
TTITLE6=Lonesome Nights
TTITLE7=Wine Song
TTITLE8=How High the Moon
TTITLE9=The Birth of the Blues
TTITLE10=After You've Gone
TTITLE11=Stompin' at the Savoy
EXTD=YEAR: 1995
EXTT0=
EXTT1=
EXTT2=
EXTT3=
EXTT4=
EXTT5=
EXTT6=
EXTT7=
EXTT8=
EXTT9=
EXTT10=
EXTT11=
PLAYORDER=
